<svg xmlns="http://www.w3.org/2000/svg" viewBox="0 0 64 64"><defs><style>.cls-1{opacity:0.2;}</style></defs><title>Alien</title><g id="Alien"><path d="M56.87,10.83a5,5,0,0,0-8-2.74,5,5,0,0,0-1.82,4.61L44.8,15a1,1,0,0,1-1.23.14,21.89,21.89,0,0,0-23.14,0A1,1,0,0,1,19.2,15L16.94,12.7A5.29,5.29,0,0,0,11.74,7a4.85,4.85,0,0,0-3.32,8.24c1.69,1.7,3.13,1.88,4.28,1.69l1.94,1.95a1,1,0,0,1,.07,1.33C2.45,35.78,16.34,60,32,60S61.45,35.66,49.29,20.22a1,1,0,0,1,.07-1.33C51.76,16.47,51,17,52,17A5,5,0,0,0,56.87,10.83Zm-2.52,3a2.94,2.94,0,0,1-3.12,1c-.75-.2-.91.21-3.29,2.59a3,3,0,0,0-.22,4C58.83,35.55,46,58,32,58S5.1,35.63,16.28,21.46a3,3,0,0,0-.22-4c-2.6-2.6-2.49-2.62-3-2.62s-1.47.71-3.17-1c-2.61-2.65,1.35-6.59,4-4,1.33,1.31,1.25,2.16,1,2.92s.19.89,2.91,3.6a3,3,0,0,0,3.7.43,19.85,19.85,0,0,1,21,0,3,3,0,0,0,3.7-.43c2.67-2.66,3.11-2.85,2.91-3.6a3,3,0,0,1,1-3.12A3,3,0,0,1,54.35,13.87Z"/><path d="M27.15,34.14c-2.69-2.69-8.49-4.2-11.3-1.41S14.57,41.34,17.26,44a13.21,13.21,0,0,0,8.33,3.43C32.91,47.46,31,38,27.15,34.14Zm.7,10.59c-1.82,1.84-7.15-.09-9.17-2.11s-3.31-6.57-1.41-8.47,6.46-.6,8.47,1.41S29.64,43,27.85,44.73Z"/><path class="cls-1" d="M27.85,44.73c-1.82,1.84-7.15-.09-9.17-2.11s-3.31-6.57-1.41-8.47,6.46-.6,8.47,1.41S29.64,43,27.85,44.73Z"/><path d="M48.08,32.73c-2.77-2.77-8.6-1.27-11.3,1.41s-5,9.16-2.11,12,9.29.61,12-2.12C49.23,41.47,51,35.6,48.08,32.73Zm-2.82,9.89c-2,2-7.31,4-9.18,2.11s.12-7.19,2.12-9.17,6.68-3.2,8.47-1.41S47.37,40.51,45.26,42.62Z"/><path class="cls-1" d="M45.26,42.62c-2,2-7.31,4-9.18,2.11s.12-7.19,2.12-9.17,6.68-3.2,8.47-1.41S47.37,40.51,45.26,42.62Z"/><path d="M28.46,51.12a1,1,0,0,1,1.42,0,3.08,3.08,0,0,0,4.24,0,1,1,0,0,1,1.42,1.42C32.21,55.86,26.92,52.67,28.46,51.12Z"/></g></svg>